<svg width="36" height="36" viewBox="0 0 36 36" fill="none" xmlns="http://www.w3.org/2000/svg">
<circle cx="18" cy="18" r="18" fill="#FF0000"/>
<path d="M26.3531 13.8094C26.1562 13.05 25.5656 12.4594 24.8063 12.2625C23.4563 11.8969 18 11.8969 18 11.8969C18 11.8969 12.5438 11.8969 11.1938 12.2625C10.4344 12.4594 9.84375 13.05 9.64687 13.8094C9.28125 15.1875 9.28125 18 9.28125 18C9.28125 18 9.28125 20.8406 9.64687 22.1906C9.84375 22.95 10.4344 23.5406 11.1938 23.7375C12.5438 24.1031 18 24.1031 18 24.1031C18 24.1031 23.4563 24.1031 24.8063 23.7375C25.5656 23.5406 26.1562 22.95 26.3531 22.1906C26.7188 20.8406 26.7188 18 26.7188 18C26.7188 18 26.7188 15.1875 26.3531 13.8094ZM16.2562 20.6156V15.3844L20.7844 18L16.2562 20.6156Z" fill="white"/>
</svg>
